<svg xmlns="http://www.w3.org/2000/svg" xmlns:xlink="http://www.w3.org/1999/xlink" xmlns:inkscape="http://www.inkscape.org/namespaces/inkscape" version="1.1" width="1024" height="1024" viewBox="0 0 1024 1024">
<defs>
<clipPath id="clip_1">
<path transform="matrix(1,0,0,-1,0,1024)" d="M0 1024H1024V0H0Z"/>
</clipPath>
</defs>
<g>
<g clip-path="url(#clip_1)">
<path transform="matrix(1,0,0,-1,354.2473,708.41726)" d="M0 0-15.773-15.773C-28.658-28.658-28.658-49.549-15.773-62.433V-62.434C-2.888-75.318 18.003-75.318 30.887-62.434L46.66-46.661C59.545-33.776 59.545-12.885 46.66 0 33.775 12.885 12.885 12.885 0 0" fill="#73479c"/>
<path transform="matrix(1,0,0,-1,736.597,200.70032)" d="M0 0H-180.251-448.388C-525.913 0-564.738-93.731-509.919-148.55L-426.134-232.335-402.927-255.543-350.132-202.748C-337.541-190.156-317.126-190.156-304.536-202.748-291.946-215.339-291.946-235.751-304.536-248.342L-357.331-301.138-461.904-405.711-471.294-415.1-512.234-456.04-526.854-470.661C-539.332-483.139-539.332-503.369-526.854-515.847-514.377-528.324-494.146-528.324-481.669-515.847L-481.555-515.733-467.048-501.226-426.108-460.286-416.719-450.897-312.145-346.324-167.095-201.274C-154.504-188.683-134.091-188.683-121.5-201.274-108.909-213.865-108.91-234.278-121.5-246.869L-266.551-391.918-326.3-451.667C-339.185-464.552-339.185-485.443-326.3-498.328-313.415-511.213-292.524-511.213-279.639-498.328L-219.89-438.579-177.843-396.531C-165.252-383.939-144.838-383.939-132.247-396.531-119.657-409.122-119.657-429.535-132.247-442.126L-174.295-484.174-102.562-555.907-61.531-596.938C-6.713-651.757 87.019-612.932 87.019-535.406V-316.325-87.018C87.019-38.959 48.059 0 0 0" fill="#73479c"/>
</g>
</g>
</svg>
